<?xml version="1.0" encoding="UTF-8"?>
<svg id="Layer_2" data-name="Layer 2" xmlns="http://www.w3.org/2000/svg" viewBox="0 0 50.33 50.33">
  <defs>
    <style>
      .cls-1 {
        fill: #fff;
      }

      .cls-2 {
        fill: #27aae1;
      }
    </style>
  </defs>
  <g id="Layer_1-2" data-name="Layer 1">
    <g>
      <circle class="cls-2" cx="25.16" cy="25.16" r="25.16"/>
      <g>
        <path class="cls-1" d="M23.97,26.71c1.01,1.01,1.96,1.97,2.92,2.93,.81,.81,1.16,.81,1.98-.01,.96-.96,1.91-1.93,2.9-2.92,1.13,1.55,2.21,3.04,3.29,4.53,1.31,1.8,2.62,3.61,3.93,5.41,.46,.63,.18,1.29-.6,1.4-.15,.02-.31,.01-.47,.01-5.57,0-11.14,0-16.71,0-.04,0-.08,0-.12,0-1.02-.01-1.35-.48-.98-1.41,.89-2.31,1.8-4.62,2.69-6.93,.38-.97,.75-1.94,1.16-2.99Z"/>
        <path class="cls-1" d="M30.66,25.14c-1,1-1.94,1.94-2.91,2.91-.94-.94-1.91-1.9-2.87-2.89-.09-.1-.1-.3-.11-.46,0-.09,.05-.18,.1-.27,1.04-2.08,1.35-4.28,1.23-6.59-.11-2.13-.02-4.27-.02-6.41,0-.19-.06-.43,.03-.57,.18-.29,.42-.68,.69-.73,.27-.05,.73,.18,.89,.43,.19,.3,.37,.37,.68,.37,2.35,0,4.7,0,7.05,0,.46,0,.89,.01,1.11,.54,.22,.52-.05,.85-.39,1.17-.6,.57-1.2,1.15-1.86,1.77,.7,.69,1.32,1.29,1.93,1.91,.29,.3,.54,.63,.33,1.09-.21,.47-.6,.54-1.06,.54-2.31,0-4.62,0-6.93,0-.21,0-.42,0-.69,0,0,1.11-.01,2.15,.01,3.19,0,.17,.17,.34,.28,.5,.84,1.18,1.7,2.36,2.52,3.51Z"/>
        <path class="cls-1" d="M18.31,38.09c-.18,.02-.3,.04-.41,.04-1.9,0-3.81,.01-5.71,0-1,0-1.35-.66-.84-1.51,2.54-4.24,5.09-8.48,7.64-12.72,.56-.93,1.31-.92,1.87,0,.4,.66,.78,1.34,1.2,1.99,.2,.3,.18,.55,.05,.86-1.23,3.08-2.44,6.16-3.67,9.24-.27,.67-.4,1.33-.14,2.11Z"/>
      </g>
    </g>
  </g>
</svg>