<?xml version="1.0" encoding="UTF-8"?>
<svg id="Layer_2" data-name="Layer 2" xmlns="http://www.w3.org/2000/svg" viewBox="0 0 50.33 50.33">
  <defs>
    <style>
      .cls-1 {
        fill: #fff;
      }

      .cls-2 {
        fill: #27aae1;
      }
    </style>
  </defs>
  <g id="Layer_1-2" data-name="Layer 1">
    <g>
      <circle class="cls-2" cx="25.16" cy="25.16" r="25.16"/>
      <path class="cls-1" d="M25.12,18.32c.51-.52,.94-1.06,1.45-1.48,2.16-1.74,4.58-2.13,7.14-1.09,2.54,1.03,3.98,2.99,4.34,5.72,.27,2.04-.51,3.78-1.59,5.41-1.28,1.94-2.9,3.58-4.74,4.97-1.99,1.51-4.1,2.86-6.15,4.29-.26,.18-.49,.21-.78,.03-3.24-1.95-6.31-4.13-8.94-6.87-1.33-1.39-2.5-2.89-3.18-4.72-1.75-4.71,1.92-9.64,6.95-9.36,2.18,.12,3.91,1.06,5.24,2.77,.08,.1,.17,.21,.26,.32Z"/>
    </g>
  </g>
</svg>