<?xml version="1.0" encoding="UTF-8"?>
<svg id="Layer_2" data-name="Layer 2" xmlns="http://www.w3.org/2000/svg" viewBox="0 0 50.33 50.33">
  <defs>
    <style>
      .cls-1 {
        fill: #fff;
      }

      .cls-2 {
        fill: #27aae1;
      }

      .cls-3 {
        fill: none;
        stroke: #fff;
        stroke-miterlimit: 10;
        stroke-width: .92px;
      }
    </style>
  </defs>
  <g id="Layer_1-2" data-name="Layer 1">
    <g>
      <circle class="cls-2" cx="25.16" cy="25.16" r="25.16"/>
      <g>
        <g>
          <path class="cls-1" d="M22.67,26.28c0,3.86,0,7.55,0,11.24,0,.36,.03,.74-.05,1.08-.21,.92-.84,1.48-1.77,1.46-.92-.02-1.55-.54-1.72-1.51-.04-.21-.04-.43-.04-.65,0-4.96,0-9.92,0-14.88,0-.21,.04-.42,.07-.73,1.59-.03,3.11-1.03,4.75-.1,.18,.1,.8-.16,.91-.4,.51-1.11,.96-2.26,1.33-3.43,.09-.28-.17-.8-.43-1-.35-.28-.85-.45-1.3-.5-.3-.03-.89,.18-.92,.36-.27,1.42-1.41,1.56-2.48,1.81-.49,.11-.98,.17-1.62,.28,.1-.71,.19-1.31,.27-1.9-.07-.01-.15-.02-.22-.04-.16,.71-.33,1.42-.55,2.38,1.23-.26,2.28-.45,3.31-.72,.79-.21,1.51-.22,1.77,.68,.26,.89-.31,1.37-1.12,1.51-1.42,.25-2.84,.58-4.27,.65-1.49,.07-2.19-.84-1.9-2.32,.28-1.38,.64-2.74,1.08-4.07,.17-.52,.61-.98,1.02-1.38,.53-.52,1.05-.69,1.74,0,1.38,1.38,3.35,1.33,4.81,.06,.24-.21,.57-.33,.86-.49,.21,.43,.58,.86,.59,1.29,.06,2.5,.06,5,.01,7.49-.02,.89,.13,1.47,1.15,1.51,2.42,.1,3.31,1.51,3.49,3.79,.15,1.9,.63,3.78,.97,5.66,.25,1.38-.26,2.33-1.37,2.52-1.03,.18-1.82-.53-2.06-1.87-.35-1.96-.67-3.92-1.07-5.87-.06-.31-.38-.72-.66-.8-1.46-.41-2.94-.73-4.56-1.12Z"/>
          <path class="cls-1" d="M27.22,13.85c1.29,.96,2.35,1.75,3.35,2.5,.21-.25,.46-.56,.76-.92,.68,2.3,1.31,4.36,1.89,6.43,.11,.39,0,.84-.02,1.26-.03,.41-.19,.83-.13,1.22,.56,3.6,1.16,7.2,1.75,10.77-.77,.5-.92,.07-1.01-.52-.51-3.18-1.01-6.36-1.58-9.52-.11-.61-.55-1.16-.82-1.74-.16-.36-.33-.72-.42-1.1-.51-2.1-1.52-3.88-3.25-5.25-.26-.21-.44-.63-.49-.97-.08-.6-.02-1.22-.02-2.15Z"/>
          <path class="cls-1" d="M22.88,14.75c-1.76-.02-3.17-1.42-3.18-3.16-.01-1.77,1.46-3.22,3.25-3.21,1.74,.02,3.17,1.44,3.18,3.17,.01,1.77-1.45,3.21-3.25,3.2Z"/>
          <path class="cls-1" d="M18.62,22.66v4.73c-2.11,.35-2.5,.03-2.5-2.01,0-1.44,0-2.88,0-4.23,.77,.46,1.54,.92,2.5,1.5Z"/>
          <path class="cls-1" d="M19.57,13.41c-.9,.19-1.84,.53-2.8,.56-1,.03-1.3-.64-1.26-2.2,.02-.9,.38-1.46,1.34-1.46,.86,0,1.72,0,2.54,0,.05,.98,.1,1.86,.17,3.1Z"/>
          <path class="cls-1" d="M23.91,16.96c.77,.3,1.4,.55,2.14,.84-.55,1.42-1.07,2.75-1.62,4.19-.43-.13-.79-.24-1.19-.36,1.49-1.22,1.51-1.94,.07-3.18,.18-.43,.36-.89,.61-1.48Z"/>
          <path class="cls-1" d="M17.56,14.47c-.47,1.56-.92,3.07-1.42,4.73,0-1.35-.06-2.57,.02-3.77,.05-.79,.63-1.07,1.4-.96Z"/>
          <path class="cls-1" d="M26.37,10.38c.97,.67,1.14,1.75,.56,3.12-.92-.12-.68-.7-.58-1.31,.09-.56,.02-1.14,.02-1.82Z"/>
        </g>
        <polyline class="cls-3" points="16.61 41.95 27.2 36.79 35.29 35.56 43.5 26.38"/>
      </g>
    </g>
  </g>
</svg>