<?xml version="1.0" encoding="UTF-8"?>
<svg id="Layer_2" data-name="Layer 2" xmlns="http://www.w3.org/2000/svg" viewBox="0 0 50.33 50.33">
  <defs>
    <style>
      .cls-1 {
        fill: #fff;
      }

      .cls-2 {
        fill: #27aae1;
      }
    </style>
  </defs>
  <g id="Layer_1-2" data-name="Layer 1">
    <g>
      <circle class="cls-2" cx="25.16" cy="25.16" r="25.16"/>
      <g>
        <path class="cls-1" d="M22.33,22.2v14.88c-.17,.01-.33,.04-.49,.04-1.7,0-3.41,0-5.11,0-1.68,0-2.71-1.01-2.72-2.69-.01-3.75,0-7.49,0-11.24,0-.73,.26-1.05,.92-1.05,2.39-.02,4.78,0,7.17,0,.07,0,.14,.03,.23,.06Z"/>
        <path class="cls-1" d="M27.4,37.1v-13.19c.5,.18,.95,.35,1.39,.51,2.16,.78,4.31,1.58,6.47,2.34,.36,.13,.47,.3,.47,.68-.02,2.3,0,4.6-.01,6.9,0,1.77-1.03,2.79-2.8,2.79-1.67,0-3.33,0-5,0-.16,0-.32-.01-.51-.02Z"/>
        <path class="cls-1" d="M27.72,22.25c.77-2.12,1.52-4.17,2.28-6.27,.68,.24,1.34,.48,1.99,.71,1.6,.58,3.2,1.16,4.8,1.75,1.67,.61,2.28,1.91,1.68,3.58-.33,.92-.66,1.85-1.01,2.76-.22,.57-.6,.79-1.13,.59-2.85-1.02-5.7-2.07-8.61-3.12Z"/>
        <path class="cls-1" d="M25.3,14.26c-.77,2.12-1.52,4.16-2.28,6.27-.52-.19-1.02-.36-1.52-.54-2.26-.82-4.52-1.64-6.78-2.47-.89-.32-1.03-.63-.71-1.51,.34-.94,.66-1.89,1.03-2.82,.52-1.3,1.73-1.9,3.06-1.54,.23,.06,.46,.15,.68,.23,2.15,.79,4.31,1.57,6.52,2.38Z"/>
        <path class="cls-1" d="M25.64,37.09h-1.58v-14.39c.52,.19,1.01,.34,1.47,.54,.09,.04,.17,.24,.17,.36,0,4.45,0,8.9,0,13.35,0,.03-.02,.07-.05,.14Z"/>
        <path class="cls-1" d="M27.88,13.42c-2.35-.86-4.59-1.67-6.82-2.48,.44-1.37,1.65-2.28,3.05-2.31,1.43-.03,2.79,.82,3.23,2.17,.27,.81,.35,1.69,.54,2.62Z"/>
        <path class="cls-1" d="M35.22,16.09c-2.25-.82-4.47-1.63-6.76-2.46,1.14-1.01,2.09-2.17,3.75-2.12,2.31,.08,3.88,2.4,3.01,4.58Z"/>
        <path class="cls-1" d="M26.87,14.83c.54,.2,1.03,.38,1.57,.58-.77,2.11-1.52,4.17-2.28,6.27-.54-.2-1.03-.38-1.57-.58,.77-2.11,1.52-4.17,2.28-6.27Z"/>
      </g>
    </g>
  </g>
</svg>