<?xml version="1.0" encoding="UTF-8"?>
<svg id="Layer_2" data-name="Layer 2" xmlns="http://www.w3.org/2000/svg" xmlns:xlink="http://www.w3.org/1999/xlink" viewBox="0 0 371.96 402.12">
  <defs>
    <style>
      .cls-1, .cls-2, .cls-3 {
        fill: #fff;
      }

      .cls-4 {
        fill: #27aae1;
      }

      .cls-2 {
        font-family: MontserratRoman-ExtraBold, Montserrat;
        font-size: 27.95px;
        font-variation-settings: 'wght' 800;
        font-weight: 700;
        letter-spacing: -.03em;
      }

      .cls-3 {
        stroke: url(#linear-gradient);
        stroke-miterlimit: 10;
        stroke-width: 1.1px;
      }

      .cls-5 {
        filter: url(#outer-glow-1);
      }
    </style>
    <filter id="outer-glow-1" filterUnits="userSpaceOnUse">
      <feOffset dx="0" dy="0"/>
      <feGaussianBlur result="blur" stdDeviation="15.22"/>
      <feFlood flood-color="#00f9ff" flood-opacity=".3"/>
      <feComposite in2="blur" operator="in"/>
      <feComposite in="SourceGraphic"/>
    </filter>
    <linearGradient id="linear-gradient" x1="133.8" y1="273.58" x2="323.34" y2="273.58" gradientUnits="userSpaceOnUse">
      <stop offset="0" stop-color="#27aae1"/>
      <stop offset="1" stop-color="#ee2a7b"/>
    </linearGradient>
  </defs>
  <g id="Layer_1-2" data-name="Layer 1">
    <g class="cls-5">
      <path class="cls-3" d="M135.88,233.88c4.06,1.22,8.58,1.69,12.09,3.82,6.28,3.81,12.66,7.94,17.74,13.16,14.43,14.81,33.66,14.65,51.89,17.81,.84,.15,1.85-.65,4.18-1.56-8.37-8.07-19.61-4.39-28.02-9.37,1.22-6.09,5.66-7.27,10.6-6.54,18.22,2.68,35.97,1.95,53.95-3.04,16.62-4.61,33.71-5.5,47,9.06,5.67,6.21,11.01,12.82,15.68,19.8,1.73,2.58,2.26,7.05,1.39,10.11-3.64,12.84-20.3,26.15-33.67,26.27-3.84,.03-9.71-2.99-11.24-6.23-8.28-17.48-18.9-17.6-33.92-14.52-7.47,1.53-14.84,3.6-22.33,5-9.8,1.83-18.8,.04-26.59-6.73-17.91-15.57-35.96-30.96-53.83-46.56-2.45-2.14-4.25-5.03-6.34-7.58,.47-.97,.95-1.93,1.42-2.9Z"/>
      <path class="cls-4" d="M268.85,76.36c-15.74,8.36-30.8,16.34-45.85,24.34-26.03,13.83-52.14,27.52-78,41.64-5.57,3.04-8.18,2.28-10.77-3.37-3.58-7.84-7.91-15.33-12.38-23.85,43.61-23.19,86.72-46.12,130.64-69.47,5.56,10.43,10.79,20.25,16.36,30.71Z"/>
      <path class="cls-4" d="M207.68,142.15v82.86h-36.21v-82.86h36.21Z"/>
      <path class="cls-4" d="M257.12,224.82v-82.54h36.04v82.54h-36.04Z"/>
      <path class="cls-4" d="M217.01,142.02h30.59v83.01h-30.59v-83.01Z"/>
      <path class="cls-4" d="M135.67,88.82c-15.12,.17-27.1-9.24-28.92-22.7-2.53-18.79,17.05-33.37,35.57-24.78,10.06,4.66,18.45,13.49,26.64,21.42,5.15,4.99,4.08,10.72-2.53,15.1-9.41,6.24-19.28,10.76-30.77,10.95Zm28.44-19.17c-6.9-10.64-15.48-18.46-27.28-21.8-9.84-2.79-20.61,3.11-22.18,11.21-1.88,9.74,4.88,18.97,15.44,21.06,13.01,2.58,23.44-3,34.01-10.47Z"/>
      <path class="cls-1" d="M258.3,104.05c.1-15.83,12.3-28.08,28.1-28.23,15.79-.15,28.81,12.84,28.73,28.67-.07,15.46-12.82,28.12-28.36,28.14-16.23,.03-28.57-12.36-28.47-28.57Zm8-.16c-.24,11.62,8.53,20.68,20.09,20.75,11.09,.07,20.28-8.63,20.69-19.6,.43-11.43-8.46-20.86-19.91-21.13-11.62-.27-20.64,8.36-20.88,19.97Z"/>
      <path class="cls-1" d="M315.13,224.86c.1-15.83,12.3-28.08,28.1-28.23,15.79-.15,28.81,12.84,28.73,28.67-.07,15.46-12.82,28.12-28.36,28.14-16.23,.03-28.57-12.36-28.47-28.57Zm8-.16c-.24,11.62,8.53,20.68,20.09,20.75,11.09,.07,20.28-8.63,20.69-19.6,.43-11.43-8.46-20.86-19.91-21.13-11.62-.27-20.64,8.36-20.88,19.97Z"/>
      <path class="cls-1" d="M0,192.67c.13-20.16,15.66-35.77,35.79-35.97,20.11-.19,36.7,16.35,36.6,36.52-.09,19.7-16.34,35.82-36.13,35.85C15.59,229.1-.13,213.32,0,192.67Zm10.19-.2c-.3,14.81,10.87,26.35,25.6,26.44,14.13,.09,25.83-11,26.36-24.96,.55-14.56-10.77-26.58-25.36-26.91-14.8-.34-26.29,10.65-26.59,25.44Z"/>
      <path class="cls-1" d="M82.16,344.59c.2-31.87,24.76-56.54,56.57-56.85,31.79-.3,58,25.84,57.86,57.72-.14,31.14-25.82,56.61-57.11,56.66-32.68,.05-57.52-24.89-57.32-57.53Zm16.1-.32c-.47,23.41,17.18,41.64,40.46,41.79,22.33,.14,40.83-17.38,41.66-39.46,.86-23.01-17.03-42.01-40.09-42.54-23.39-.54-41.56,16.84-42.03,40.21Z"/>
      <path class="cls-4" d="M176.27,36.07c.77-9.49,1.49-18.18,7.88-25.61,8.32-9.67,19.82-12.86,29.56-7.79,10.55,5.49,16.13,18.65,12.87,30.34-3.76,13.5-21.52,29.29-35.48,30.53-2.72,.24-7.34-2.54-8.35-5.03-2.91-7.18-4.42-14.92-6.48-22.44Zm13.2,20.07c12.87-4.57,22.76-10.59,28.15-22.14,4.03-8.64,1.24-18.59-6.55-23.65-6.61-4.3-14.61-2.82-20.63,5.46-9.3,12.79-4.91,26.32-.97,40.33Z"/>
      <path class="cls-4" d="M154.93,1.37c2.74,3.41,4.3,5.35,7.48,9.3,1.86-3.53,3.41-6.49,5.61-10.68,2.3,22.2,4.34,41.9,6.31,60.9-12.2-16.5-19.04-35.96-19.41-59.53Z"/>
      <path class="cls-4" d="M174.99,77.43c-.22-12.23,5.95-15.56,17.3-9.41-5.85,3.18-11.13,6.05-17.3,9.41Z"/>
      <text class="cls-2" transform="translate(278.75 115.05) scale(.9 1)"><tspan x="0" y="0">₮</tspan></text>
      <polygon class="cls-1" points="139.23 322.38 146.56 337.22 162.94 339.61 151.08 351.16 153.88 367.48 139.23 359.78 124.57 367.48 127.37 351.16 115.51 339.61 131.9 337.22 139.23 322.38"/>
      <circle class="cls-1" cx="36.17" cy="192.96" r="13.28"/>
      <circle class="cls-1" cx="343.53" cy="224.82" r="13.28"/>
    </g>
  </g>
</svg>