<?xml version="1.0" encoding="UTF-8"?>
<svg id="Layer_2" data-name="Layer 2" xmlns="http://www.w3.org/2000/svg" viewBox="0 0 112.54 95.35">
  <defs>
    <style>
      .cls-1 {
        fill: #00c7f0;
      }
    </style>
  </defs>
  <g id="Layer_1-2" data-name="Layer 1">
    <g>
      <path class="cls-1" d="M20.28,88.45c-.01-.2-.09-.98-.1-1.76-.01-7.19,0-14.38,0-21.57,0-1.16-.32-2.49,1.46-2.73,.17-.02,.31-.36,.44-.55,5.19-7.37,12.54-9.92,21.25-9.75,7.43,.15,14.87,.02,22.31,.04,3.45,0,4.22,1.06,3.2,4.32-1.69,5.44-6.64,9.37-12.36,9.72-2.34,.14-4.69,.04-7.03,.11-2.65,.08-4.33,1.56-4.24,3.65,.08,2.04,1.68,3.37,4.23,3.38,8.41,.02,16.81,.07,25.22-.03,4.97-.06,9.49-1.68,13.63-4.44,4.84-3.23,9.67-6.47,14.56-9.6,2.7-1.73,5.91-1.28,7.97,.91,1.99,2.12,2.31,5.18,.64,7.57-.59,.84-1.41,1.57-2.27,2.14-7.58,5.08-15.21,10.09-22.78,15.18-8.01,5.37-17.09,7.33-26.43,8.72-8.47,1.26-16.68,.79-24.88-1.79-4.71-1.49-9.63-2.3-14.82-3.51Z"/>
      <path class="cls-1" d="M66.45,26.08c3.44-2.13,6.32-4.03,9.32-5.71,.7-.39,2-.38,2.71,.01,2.99,1.68,5.87,3.57,9.16,5.61V14.38c4.62,0,9.02-.04,13.42,.06,.39,0,1.07,.93,1.08,1.43,.06,8.31,.12,16.63-.02,24.94-.06,3.37-2.41,5.55-5.82,5.57-12.84,.07-25.68,.07-38.53,0-3.25-.02-5.63-2.25-5.68-5.46-.14-8.71-.05-17.42-.05-26.35h14.41v11.5Z"/>
      <path class="cls-1" d="M.01,75.77c0-4.84-.02-9.68,0-14.51,.02-3.39,1.49-4.85,4.88-4.88,2.82-.03,5.65-.04,8.47,0,2.78,.05,4.45,1.57,4.47,4.32,.07,10.08,.06,20.16,0,30.24-.02,2.81-1.59,4.29-4.41,4.36-2.98,.07-5.97,.07-8.96,0-2.96-.06-4.43-1.56-4.45-4.54-.05-5-.01-10-.01-15Zm6.84,10.53c0,.38,0,.76,0,1.14,1.05,.76,2.02,1.96,3.17,2.16,1.6,.27,2.69-.93,2.83-2.62,.14-1.59-1.34-3.24-2.84-2.84-1.16,.31-2.12,1.42-3.16,2.17Z"/>
      <path class="cls-1" d="M85.19,21.73c-2.39-1.48-4.54-2.72-6.57-4.11-1.11-.76-1.95-.73-3.04,.01-2.04,1.39-4.18,2.63-6.55,4.09V.12h16.16V21.73Z"/>
      <path class="cls-1" d="M66.39,12.08c-5.38,0-10.52,.02-15.67-.01-1.54-.01-2.34-.87-2.33-2.46,.02-2.42-.16-4.85,.1-7.24,.09-.83,1.19-2.19,1.87-2.21,5.29-.18,10.6-.1,16.03-.1V12.08Z"/>
      <path class="cls-1" d="M87.77,12.06V0c1.8,0,3.54,0,5.27,0,3.38,0,6.77,.01,10.15,0,1.79,0,2.67,.81,2.64,2.64-.04,2.33,.18,4.69-.11,6.99-.11,.88-1.3,2.29-2.05,2.32-5.21,.2-10.44,.11-15.9,.11Z"/>
    </g>
  </g>
</svg>