<?xml version="1.0" encoding="UTF-8"?>
<svg id="Layer_2" data-name="Layer 2" xmlns="http://www.w3.org/2000/svg" viewBox="0 0 51.61 42.09">
  <defs>
    <style>
      .cls-1 {
        fill: #be1e2d;
      }
    </style>
  </defs>
  <g id="Layer_1-2" data-name="Layer 1">
    <path class="cls-1" d="M25.72,6.25c1.02-1.04,1.87-2.11,2.9-2.95C32.92-.16,37.76-.93,42.85,1.13c5.06,2.05,7.93,5.96,8.65,11.4,.53,4.06-1.01,7.53-3.16,10.8-2.55,3.87-5.79,7.14-9.45,9.91-3.97,3.01-8.17,5.7-12.27,8.55-.52,.36-.97,.41-1.56,.06-6.47-3.89-12.58-8.23-17.83-13.7-2.65-2.76-4.98-5.77-6.34-9.41C-2.61,9.35,4.71-.49,14.74,.08c4.34,.25,7.8,2.12,10.46,5.53,.16,.21,.33,.41,.52,.64Z"/>
  </g>
</svg>