<?xml version="1.0" encoding="UTF-8"?>
<svg id="Layer_2" data-name="Layer 2" xmlns="http://www.w3.org/2000/svg" viewBox="0 0 98.49 98.39">
  <defs>
    <style>
      .cls-1 {
        fill: #00c7f0;
      }
    </style>
  </defs>
  <g id="Layer_1-2" data-name="Layer 1">
    <g>
      <path class="cls-1" d="M10.59,40.88c-1.82,1.54-3.19,2.75-4.61,3.88-1.77,1.4-3.79,1.29-5.1-.21-1.35-1.55-1.15-3.7,.64-5.22C16.53,26.62,31.55,13.91,46.59,1.22c1.92-1.62,3.38-1.63,5.3,0,15.04,12.69,30.06,25.4,45.07,38.12,1.79,1.52,2,3.67,.65,5.22-1.35,1.55-3.41,1.6-5.27,.08-1.36-1.1-2.67-2.26-4.44-3.76,0,1.16,0,1.91,0,2.65,0,14.33,0,28.67,0,43,0,7.64-4.19,11.86-11.76,11.86-17.93,0-35.85,0-53.78,0-7.57,0-11.76-4.23-11.77-11.85,0-14.26,0-28.52,0-42.78,0-.79,0-1.57,0-2.87Zm25.26,39.95c.54-.39,1.72-.98,2.55-1.88,3.22-3.49,6.34-7.08,9.5-10.63,5.83-6.55,11.66-13.1,17.48-19.66,1.81-2.05,1.87-4.15,.21-5.58-1.56-1.35-3.61-1.15-5.22,.66-9.2,10.31-18.37,20.64-27.54,30.97-.29,.32-.55,.69-.74,1.08-1.14,2.29,.47,4.96,3.76,5.05Zm9.87-31.6c0-5.74-4.68-10.47-10.41-10.53-5.84-.06-10.64,4.69-10.64,10.52,0,5.83,4.8,10.58,10.63,10.53,5.73-.04,10.42-4.78,10.42-10.52Zm17.58,14.05c-5.74,0-10.48,4.68-10.53,10.41-.05,5.83,4.7,10.64,10.52,10.64,5.83,0,10.58-4.8,10.53-10.63-.05-5.73-4.78-10.42-10.52-10.42Z"/>
      <path class="cls-1" d="M35.22,52.73c-1.89,.01-3.49-1.54-3.53-3.43-.05-1.98,1.61-3.63,3.59-3.58,1.89,.05,3.44,1.64,3.42,3.54-.02,1.89-1.59,3.46-3.48,3.48Z"/>
      <path class="cls-1" d="M63.24,70.3c1.89-.03,3.5,1.51,3.56,3.4,.06,1.88-1.46,3.53-3.34,3.62-1.96,.09-3.67-1.54-3.67-3.51,0-1.9,1.55-3.47,3.45-3.5Z"/>
    </g>
  </g>
</svg>