<?xml version="1.0" encoding="UTF-8"?>
<svg id="Layer_2" data-name="Layer 2" xmlns="http://www.w3.org/2000/svg" viewBox="0 0 50.33 50.33">
  <defs>
    <style>
      .cls-1 {
        fill: #fff;
      }

      .cls-2 {
        fill: #27aae1;
      }
    </style>
  </defs>
  <g id="Layer_1-2" data-name="Layer 1">
    <g>
      <circle class="cls-2" cx="25.16" cy="25.16" r="25.16"/>
      <g>
        <path class="cls-1" d="M21.08,16.94h5.57c.02,.19,.04,.37,.05,.51,1.8-.48,3.59-.96,5.39-1.44,.43-.11,.86-.21,1.28-.34,.39-.12,.63,0,.73,.39,.19,.74,.38,1.47,.59,2.27-2.45,.65-4.88,1.3-7.35,1.96-.19-.71-.38-1.39-.56-2.07-.03,0-.06,0-.09,.01v14.72h-5.6V16.94Z"/>
        <path class="cls-1" d="M20.14,18.69v14.27h-6.89v-14.27h6.89Zm-5.61,3.44c0,.52,0,1.05,0,1.57-.01,.41,.17,.59,.58,.59,1.07,0,2.13,0,3.2,0,.38,0,.55-.19,.55-.57,0-1.07,0-2.13,0-3.2,0-.37-.16-.56-.55-.56-1.07,0-2.13,0-3.2,0-.41,0-.58,.19-.57,.59,.01,.52,0,1.05,0,1.57Z"/>
        <path class="cls-1" d="M37.85,30.45c-2.46,.66-4.87,1.3-7.36,1.96-.83-3.19-1.66-6.35-2.5-9.56,2.47-.66,4.9-1.3,7.36-1.96,.83,3.19,1.65,6.33,2.49,9.55Z"/>
        <path class="cls-1" d="M31.4,35.88c2.47-.66,4.88-1.3,7.35-1.96,.18,.68,.38,1.34,.52,2.01,.08,.4-.25,.5-.56,.58-1.73,.46-3.46,.92-5.19,1.38-.31,.08-.62,.16-.93,.25-.37,.11-.6-.03-.7-.38-.17-.6-.31-1.21-.49-1.89Z"/>
        <path class="cls-1" d="M13.22,35.61h6.94c0,.74,.03,1.45-.02,2.15-.01,.15-.29,.41-.45,.41-2,.03-4,.03-6,0-.16,0-.43-.3-.44-.48-.05-.67-.02-1.35-.02-2.08Z"/>
        <path class="cls-1" d="M26.67,35.61c0,.75,.03,1.47-.02,2.19,0,.14-.31,.37-.49,.37-1.53,.03-3.05,.03-4.58,0-.18,0-.49-.26-.5-.41-.05-.7-.02-1.41-.02-2.15h5.62Z"/>
        <path class="cls-1" d="M20.16,17.76h-6.93c0-.59-.03-1.18,.02-1.76,.01-.15,.32-.38,.49-.38,1.96-.03,3.93-.02,5.89-.02,.31,0,.53,.14,.53,.48,0,.54,0,1.08,0,1.68Z"/>
        <path class="cls-1" d="M31.18,35.04c-.16-.62-.31-1.17-.47-1.79,2.45-.65,4.88-1.3,7.36-1.96,.16,.61,.31,1.18,.46,1.79-2.47,.66-4.89,1.3-7.35,1.96Z"/>
        <path class="cls-1" d="M21.11,13.84s-.04-.05-.04-.07c-.05-1.89-.15-1.62,1.49-1.64,1.15,0,2.31,0,3.46,0,.48,0,.69,.18,.67,.66-.02,.34,0,.67,0,1.05h-5.57Z"/>
        <path class="cls-1" d="M34.89,19.17c.09,.3,.16,.57,.26,.89-2.45,.66-4.87,1.3-7.34,1.96-.08-.28-.16-.55-.26-.89,2.46-.66,4.88-1.3,7.35-1.96Z"/>
        <path class="cls-1" d="M26.66,14.79v1.22h-5.57v-1.22h5.57Z"/>
        <path class="cls-1" d="M20.14,33.88v.81h-6.88v-.81h6.88Z"/>
        <path class="cls-1" d="M26.64,34.71h-5.55v-.83h5.55v.83Z"/>
      </g>
    </g>
  </g>
</svg>