<?xml version="1.0" encoding="UTF-8"?>
<svg id="Layer_2" data-name="Layer 2" xmlns="http://www.w3.org/2000/svg" viewBox="0 0 24.14 24.89">
  <defs>
    <style>
      .cls-1 {
        fill: #fff;
      }

      .cls-2 {
        fill: #ed1c24;
      }
    </style>
  </defs>
  <g id="Layer_1-2" data-name="Layer 1">
    <g>
      <path class="cls-1" d="M19.69,16.11v4.36H2.35c-.01-.16-.03-.3-.03-.44,0-2.75-.02-5.49,0-8.24,.02-3.48,2.17-6.61,5.39-7.93,3.24-1.32,6.99-.57,9.45,1.91,.05,.05,.1,.11,.17,.19-2.43,1.53-3.53,3.66-2.65,6.46,.74,2.34,2.53,3.48,4.99,3.69Z"/>
      <path class="cls-1" d="M11.04,21.39c3.06,0,6.12,0,9.18,0,1.29,0,2.14,1.19,1.7,2.34-.24,.63-.7,1.02-1.39,1.12-.22,.03-.44,.03-.66,.03-5.9,0-11.8,0-17.69,0-.35,0-.71-.02-1.03-.13-.78-.26-1.24-1.08-1.12-1.88,.12-.84,.84-1.48,1.73-1.48,3.1-.01,6.19,0,9.29,0Z"/>
      <path class="cls-2" d="M24.14,10.75c0,2.45-1.97,4.44-4.41,4.45-2.43,0-4.44-1.99-4.44-4.42,0-2.45,1.97-4.43,4.41-4.43,2.46,0,4.43,1.96,4.44,4.4Zm-4.97-1.54c.06,.64,.11,1.43,.21,2.21,.02,.14,.19,.3,.32,.36,.06,.03,.31-.17,.32-.28,.1-1.02,.19-2.04,.21-3.07,0-.16-.35-.5-.45-.47-.23,.07-.46,.29-.59,.51-.09,.15-.02,.39-.02,.74Zm-.1,3.73c0,.09,0,.18,.01,.27,.23,.12,.46,.36,.67,.34,.19-.02,.51-.37,.48-.5-.05-.22-.33-.5-.53-.52-.19-.02-.42,.27-.63,.42Z"/>
      <path class="cls-1" d="M12.91,2.42h-3.77c-.25-.7,.01-1.53,.69-2.03,.68-.51,1.63-.52,2.33-.04,.71,.49,.99,1.31,.76,2.07Z"/>
    </g>
  </g>
</svg>