<?xml version="1.0" encoding="UTF-8"?>
<svg id="Layer_2" data-name="Layer 2" xmlns="http://www.w3.org/2000/svg" viewBox="0 0 50.33 50.33">
  <defs>
    <style>
      .cls-1 {
        fill: #fff;
      }

      .cls-2 {
        fill: #27aae1;
      }
    </style>
  </defs>
  <g id="Layer_1-2" data-name="Layer 1">
    <g>
      <circle class="cls-2" cx="25.16" cy="25.16" r="25.16"/>
      <g>
        <path class="cls-1" d="M33.51,12.49H16.82c-1.02,0-1.85,.83-1.85,1.85v21.65c0,1.02,.83,1.85,1.85,1.85h9.74c4.85,0,8.79-3.94,8.79-8.79V14.34c0-1.02-.83-1.85-1.85-1.85Zm.9,16.56c0,4.32-3.52,7.84-7.84,7.84h-9.74c-.5,0-.9-.4-.9-.9V14.34c0-.5,.4-.9,.9-.9h16.68c.5,0,.9,.4,.9,.9v14.71Z"/>
        <rect class="cls-1" x="19.2" y="17.73" width="11.81" height=".85"/>
        <rect class="cls-1" x="19.2" y="21.37" width="11.81" height=".85"/>
        <rect class="cls-1" x="19.2" y="25.02" width="11.81" height=".85"/>
        <rect class="cls-1" x="19.2" y="28.66" width="6.84" height=".85"/>
      </g>
    </g>
  </g>
</svg>