<?xml version="1.0" encoding="UTF-8"?>
<svg id="Layer_2" data-name="Layer 2" xmlns="http://www.w3.org/2000/svg" viewBox="0 0 105.91 98.68">
  <defs>
    <style>
      .cls-1 {
        fill: #00c7f0;
      }
    </style>
  </defs>
  <g id="Layer_1-2" data-name="Layer 1">
    <path class="cls-1" d="M56.5,49.67c0,5.39,0,10.53,0,15.66,0,7.35,.02,14.69,0,22.04-.02,6.56-4.53,11.34-10.64,11.31-6.1-.03-10.52-4.82-10.54-11.41,0-.88-.04-1.77,.01-2.64,.12-2.11,1.52-3.53,3.45-3.57,1.99-.04,3.49,1.45,3.6,3.65,.06,1.17-.04,2.35,.04,3.52,.14,1.95,1.58,3.34,3.4,3.39,1.82,.05,3.55-1.3,3.56-3.21,.07-12.85,.03-25.69,.03-38.69-4.18,.64-7.71,2.31-10.8,4.91-2.82,2.38-3.98,2.37-6.59-.09-7.55-7.13-17.82-7.09-25.3,.13-1.3,1.25-2.62,2.19-4.49,1.39C.39,55.29,0,53.76,0,51.92,0,26.11,21.01,2.89,46.72,.3c27.92-2.81,52.24,14.66,58.06,41.85,.72,3.35,.81,6.84,1.11,10.27,.15,1.7-.62,3-2.25,3.67-1.56,.64-2.91,.17-3.99-1-6.99-7.54-18.48-7.97-26.27-.05-1.81,1.84-3.47,1.83-5.44,.14-3.24-2.78-6.88-4.69-11.44-5.5Z"/>
  </g>
</svg>