<?xml version="1.0" encoding="UTF-8"?>
<svg id="Layer_2" data-name="Layer 2" xmlns="http://www.w3.org/2000/svg" viewBox="0 0 97.47 97.26">
  <defs>
    <style>
      .cls-1 {
        fill: #00c7f0;
      }
    </style>
  </defs>
  <g id="Layer_1-2" data-name="Layer 1">
    <g>
      <path class="cls-1" d="M64.3,14.81c-.8-.84-1.57-1.4-1.96-2.15-.28-.55-.33-1.71,.01-1.98,.5-.39,1.44-.3,2.18-.25,.29,.02,.57,.48,.84,.75,6.72,6.72,13.45,13.44,20.17,20.16,.27,.27,.71,.54,.74,.84,.07,.68,.19,1.65-.18,2.01-.39,.38-1.47,.45-2,.18-.82-.42-1.42-1.25-2.56-2.33-.43,.65-.77,1.38-1.3,1.91-10.59,10.62-21.2,21.21-31.8,31.81-3.45,3.45-5.72,3.44-9.22-.06-2.98-2.98-5.97-5.94-8.93-8.94-2.64-2.67-2.61-5.32,.05-8.01,2.11-2.13,4.27-4.22,6.35-6.37,1.19-1.23,2.24-1.23,3.41,0,1.45,1.52,2.97,2.99,4.46,4.47,.88,.88,1.84,1.92,3.05,.67,1.12-1.16,.15-2.07-.69-2.91-1.54-1.53-3.05-3.09-4.61-4.6-1.16-1.12-1.14-2.14,.01-3.26,2.64-2.59,5.27-5.2,7.85-7.85,1.18-1.21,2.22-1.31,3.4-.04,.95,1.03,1.98,1.99,2.97,2.98,.79,.78,1.84,1.1,2.45,.14,.36-.55,.16-1.81-.25-2.43-.74-1.09-1.8-1.98-2.79-2.87-1.33-1.2-1.33-2.27-.03-3.53,2.79-2.7,5.51-5.47,8.39-8.34Z"/>
      <path class="cls-1" d="M74.05,70.11c.3-1.49,.17-2.42-1.39-3.11-2.53-1.12-3.55-4-2.87-7.02,.57-2.55,2.57-4.33,5.31-4.4,4.33-.11,8.67-.1,13.01-.01,2.82,.06,4.99,1.94,5.48,4.46,.63,3.2-.48,5.84-3.12,7.12-.88,.43-1.41,.77-1.4,1.91,0,1.19,.76,1.25,1.51,1.57,1.94,.81,3.08,2.26,3.1,4.4,.04,5.8,.06,11.6,0,17.4-.03,2.69-1.83,4.66-4.53,4.73-4.97,.14-9.95,.13-14.92,0-2.68-.07-4.52-1.98-4.58-4.72-.11-5.8-.1-11.6,0-17.4,.04-2.52,1.26-3.69,4.41-4.93Zm11.76-2.15h-8.33c.05,.88,.09,1.54,.13,2.19h8.2v-2.19Z"/>
      <path class="cls-1" d="M83.3,3.43c-.34-.4-.75-.66-.79-.98-.09-.79,0-1.6,0-2.4,.76,.04,1.81-.24,2.22,.16,4.26,4.11,8.44,8.3,12.55,12.56,.37,.39,.05,1.45,.05,2.19-.79,0-1.65,.16-2.36-.08-.6-.21-1.03-.9-1.72-1.55-2.58,2.58-5.13,5.14-7.68,7.69-.49,.5-.99,.99-1.49,1.48-.95,.93-1.89,.91-2.83-.03-2.34-2.34-4.68-4.68-7.03-7.01-1.11-1.1-.93-2.07,.12-3.11,2.99-2.94,5.94-5.92,8.94-8.92Z"/>
      <path class="cls-1" d="M26.33,68.43c-.76-1.17-1.37-1.92-1.76-2.77-.92-2.01-.37-4.51,1.17-6,.88-.85,1.78-1.01,2.68-.12,2.9,2.87,5.78,5.76,8.66,8.65,.9,.9,.78,1.78-.07,2.67-1.8,1.89-4.77,2.21-6.99,.7-.46-.32-.89-.69-1.86-1.47-.37,.61-.64,1.31-1.12,1.8-7.78,7.82-15.58,15.61-23.38,23.4-.45,.45-.88,1.11-1.42,1.22-.63,.14-1.56,0-2-.4-.33-.3-.24-1.28-.05-1.85,.16-.49,.73-.86,1.14-1.26,7.8-7.8,15.59-15.6,23.41-23.38,.49-.49,1.12-.83,1.61-1.19Z"/>
    </g>
  </g>
</svg>